<svg width="52" height="52" viewBox="0 0 52 52" fill="none" xmlns="http://www.w3.org/2000/svg">
<rect x="0.523438" y="1" width="50.4762" height="50.4762" rx="25.2381" stroke="#0A163F" stroke-width="0.701058"/>
<path fill-rule="evenodd" clip-rule="evenodd" d="M20.0843 13.3384H31.6441C35.57 13.3384 38.7639 16.5323 38.7638 20.458V32.0177C38.7638 35.9434 35.57 39.1373 31.6441 39.1373H20.0843C16.1586 39.1373 12.9648 35.9435 12.9648 32.0177V20.458C12.9648 16.5323 16.1586 13.3384 20.0843 13.3384ZM31.6457 36.8484C34.3094 36.8484 36.4765 34.6814 36.4765 32.0178H36.4763V20.458C36.4763 17.7945 34.3092 15.6274 31.6456 15.6274H20.0858C17.4223 15.6274 15.2554 17.7945 15.2554 20.458V32.0178C15.2554 34.6814 17.4223 36.8485 20.0858 36.8484H31.6457ZM19.1085 26.2375C19.1085 22.5117 22.1395 19.4805 25.8653 19.4805C29.5911 19.4805 32.6222 22.5117 32.6222 26.2375C32.6222 29.9633 29.5911 32.9943 25.8653 32.9943C22.1395 32.9943 19.1085 29.9633 19.1085 26.2375ZM21.4326 26.238C21.4326 28.6808 23.4201 30.6681 25.8629 30.6681C28.3056 30.6681 30.2932 28.6808 30.2932 26.238C30.2932 23.7951 28.3058 21.8076 25.8629 21.8076C23.42 21.8076 21.4326 23.7951 21.4326 26.238Z" fill="#0A163F"/>
</svg>
