<svg width="52" height="52" viewBox="0 0 52 52" fill="none" xmlns="http://www.w3.org/2000/svg">
<rect x="1.01562" y="1" width="50.4762" height="50.4762" rx="25.2381" stroke="#0A163F" stroke-width="0.701058"/>
<path d="M26.236 26.6687C22.8064 26.6687 19.9558 23.7082 19.9558 20.2051C19.9558 16.5809 22.8064 13.6191 26.2372 13.6191C29.7846 13.6191 32.5174 16.5796 32.5174 20.2051C32.5113 21.9252 31.8484 23.5723 30.6744 24.7846C29.5005 25.9968 27.9114 26.675 26.2566 26.6699L26.236 26.6687ZM26.236 17.4264C24.784 17.4264 23.6792 18.6946 23.6792 20.2064C23.6792 21.7156 24.784 22.864 26.2372 22.864C27.7487 22.864 28.7952 21.7156 28.7952 20.2064C28.7964 18.6933 27.7487 17.4264 26.236 17.4264ZM28.7369 32.047L32.2855 35.6119C32.9836 36.3955 32.9836 37.5439 32.2855 38.2695C31.5304 39.0532 30.3662 39.0532 29.7846 38.2695L26.2372 34.644L22.8064 38.2695C22.4579 38.6317 21.9917 38.8121 21.4673 38.8121C21.0606 38.8121 20.5956 38.6304 20.1877 38.2695C19.4896 37.5439 19.4896 36.3955 20.1877 35.6106L23.7934 32.0457C22.4912 31.6449 21.2421 31.0773 20.0748 30.356C19.2019 29.8727 19.0283 28.665 19.4933 27.7577C20.0748 26.8516 21.1213 26.6106 22.0524 27.2151C23.3133 28.0149 24.7619 28.438 26.239 28.438C27.7162 28.438 29.1647 28.0149 30.4256 27.2151C31.3568 26.6106 32.4604 26.8516 32.9836 27.7577C33.5081 28.665 33.2738 29.8714 32.4591 30.356C31.3556 31.0816 30.076 31.6255 28.7381 32.0482L28.7369 32.047Z" fill="#0A163F"/>
</svg>
