<svg width="144" height="48" viewBox="0 0 144 48" fill="none" xmlns="http://www.w3.org/2000/svg">
<g clip-path="url(#clip0_603_1912)">
<path d="M132.533 3.39297e-05H11.4737C11.0325 3.39297e-05 10.5965 3.39298e-05 10.1564 0.00243393C9.78796 0.00483393 9.42248 0.0118059 9.05053 0.0176739C8.24249 0.0271561 7.43634 0.0980455 6.6391 0.229726C5.84298 0.364273 5.0718 0.617933 4.35165 0.982126C3.63237 1.3494 2.97514 1.82664 2.40381 2.39652C1.82948 2.9648 1.35074 3.62165 0.98598 4.34183C0.620216 5.06057 0.366595 5.83076 0.233875 6.62581C0.0998928 7.41986 0.0277959 8.22306 0.018231 9.02821C0.00706377 9.39613 0.00588447 9.76527 0 10.1332V37.8704C0.00588447 38.243 0.00706377 38.6039 0.018231 38.9766C0.0277988 39.7817 0.0998957 40.5849 0.233875 41.3789C0.366228 42.1744 0.619865 42.9451 0.98598 43.6641C1.35057 44.3819 1.82939 45.0361 2.40381 45.6012C2.97298 46.1737 3.63063 46.6512 4.35165 47.0157C5.0718 47.3808 5.8429 47.636 6.6391 47.7726C7.43648 47.9033 8.24254 47.9742 9.05053 47.9848C9.42248 47.993 9.78796 47.9976 10.1564 47.9976C10.5965 48 11.0325 48 11.4737 48H132.533C132.965 48 133.405 48 133.837 47.9976C134.204 47.9976 134.58 47.993 134.947 47.9848C135.753 47.9747 136.558 47.9038 137.353 47.7726C138.152 47.6351 138.926 47.3799 139.65 47.0157C140.37 46.651 141.027 46.1735 141.596 45.6012C142.169 45.0339 142.648 44.3802 143.018 43.6641C143.381 42.9445 143.632 42.174 143.763 41.3789C143.897 40.5848 143.971 39.7818 143.986 38.9766C143.991 38.6039 143.991 38.243 143.991 37.8704C144 37.4344 144 37.0008 144 36.5578V11.4434C144 11.0039 144 10.568 143.991 10.1332C143.991 9.76527 143.991 9.39613 143.986 9.02816C143.971 8.22294 143.897 7.41992 143.763 6.62576C143.632 5.83117 143.381 5.06104 143.018 4.34178C142.275 2.89827 141.097 1.72326 139.65 0.982018C138.926 0.618715 138.152 0.365122 137.353 0.229618C136.558 0.0973573 135.753 0.0264432 134.947 0.0175059C134.58 0.0116499 134.204 0.00461793 133.837 0.00227793C133.405 -0.00012207 132.965 -0.00012207 132.533 -0.00012207V3.39297e-05Z" fill="#A6A6A6"/>
<path d="M10.1623 46.95C9.79571 46.95 9.43792 46.9454 9.07416 46.9372C8.32058 46.9274 7.56877 46.862 6.82489 46.7415C6.13126 46.6224 5.45931 46.4008 4.83122 46.084C4.20889 45.7699 3.64127 45.358 3.15012 44.8641C2.65185 44.376 2.23702 43.8099 1.92207 43.1883C1.60364 42.5626 1.38327 41.8919 1.26864 41.1996C1.14484 40.4558 1.07786 39.7036 1.06828 38.9496C1.06065 38.6966 1.05066 37.8539 1.05066 37.8539V10.1333C1.05066 10.1333 1.0613 9.30356 1.06834 9.05981C1.07751 8.30703 1.1441 7.55603 1.26753 6.81332C1.38238 6.11915 1.60292 5.44655 1.92151 4.8188C2.23531 4.19758 2.64784 3.63108 3.1431 3.14126C3.63781 2.64679 4.20724 2.23277 4.83063 1.9143C5.45728 1.59856 6.12795 1.37853 6.82019 1.26157C7.56651 1.13985 8.32093 1.07404 9.07712 1.0647L10.1629 1.05005H133.831L134.93 1.06529C135.679 1.07417 136.427 1.13939 137.167 1.2604C137.866 1.37882 138.543 1.60039 139.177 1.91782C140.426 2.55963 141.442 3.57504 142.083 4.82173C142.397 5.44514 142.614 6.11226 142.727 6.80044C142.852 7.54924 142.922 8.30613 142.937 9.06509C142.94 9.40493 142.94 9.76997 142.94 10.1333C142.95 10.5833 142.95 11.0116 142.95 11.4434V36.5578C142.95 36.9938 142.95 37.4192 142.94 37.848C142.94 38.2383 142.94 38.5958 142.935 38.9637C142.921 39.7091 142.853 40.4525 142.73 41.1879C142.617 41.8852 142.398 42.5611 142.08 43.1919C141.763 43.8068 141.35 44.368 140.858 44.8547C140.366 45.3513 139.798 45.7656 139.174 46.0817C138.542 46.4009 137.865 46.6233 137.167 46.7415C136.423 46.8626 135.671 46.9281 134.917 46.9372C134.565 46.9454 134.196 46.95 133.837 46.95L132.533 46.9524L10.1623 46.95Z" fill="black"/>
<path d="M29.8061 24.3609C29.8191 23.3593 30.0859 22.3772 30.5817 21.5061C31.0775 20.6349 31.7862 19.903 32.6419 19.3784C32.0983 18.6042 31.3812 17.9671 30.5475 17.5176C29.7137 17.0682 28.7864 16.8187 27.8391 16.7892C25.8184 16.5777 23.8593 17.995 22.8296 17.995C21.7799 17.995 20.1945 16.8102 18.4872 16.8452C17.3829 16.8808 16.3067 17.201 15.3634 17.7747C14.4201 18.3484 13.6419 19.1559 13.1047 20.1187C10.7774 24.1368 12.5133 30.042 14.7427 33.29C15.8581 34.8804 17.1617 36.6569 18.8674 36.5939C20.5365 36.5249 21.1599 35.5325 23.1747 35.5325C25.1708 35.5325 25.7557 36.5939 27.496 36.5539C29.2871 36.5249 30.4156 34.9564 31.4918 33.3509C32.2933 32.2177 32.9099 30.9652 33.3191 29.6399C32.2785 29.201 31.3905 28.4664 30.7658 27.5276C30.1411 26.5889 29.8073 25.4875 29.8061 24.3609V24.3609Z" fill="white"/>
<path d="M26.519 14.6531C27.4956 13.484 27.9767 11.9814 27.8602 10.4644C26.3682 10.6206 24.99 11.3317 24.0003 12.4559C23.5163 13.0051 23.1457 13.644 22.9096 14.3361C22.6734 15.0283 22.5763 15.76 22.624 16.4896C23.3702 16.4972 24.1085 16.3359 24.7832 16.0178C25.4579 15.6997 26.0514 15.2331 26.519 14.6531Z" fill="white"/>
<path d="M50.9052 32.5676H45.2092L43.8413 36.5954H41.4287L46.8239 21.6938H49.3305L54.7257 36.5954H52.2719L50.9052 32.5676ZM45.7991 30.709H50.3142L48.0884 24.1723H48.0261L45.7991 30.709Z" fill="white"/>
<path d="M66.3775 31.1637C66.3775 34.5399 64.5654 36.709 61.8308 36.709C61.1381 36.7451 60.4491 36.586 59.8429 36.2499C59.2366 35.9137 58.7376 35.4141 58.4028 34.8082H58.3511V40.1895H56.1147V25.7309H58.2794V27.5379H58.3206C58.6707 26.935 59.1782 26.4379 59.7891 26.0997C60.3999 25.7615 61.0913 25.5947 61.7897 25.6172C64.5548 25.6172 66.3775 27.7969 66.3775 31.1637ZM64.0789 31.1637C64.0789 28.9641 62.939 27.518 61.1997 27.518C59.491 27.518 58.3417 28.9946 58.3417 31.1637C58.3417 33.3528 59.491 34.8188 61.1997 34.8188C62.939 34.8188 64.0789 33.3832 64.0789 31.1637Z" fill="white"/>
<path d="M78.3687 31.1638C78.3687 34.5399 76.5566 36.7091 73.822 36.7091C73.1293 36.7452 72.4403 36.5861 71.8341 36.2499C71.2278 35.9137 70.7288 35.4141 70.394 34.8083H70.3423V40.1895H68.106V25.7309H70.2706V27.538H70.3117C70.6619 26.935 71.1694 26.438 71.7802 26.0998C72.3911 25.7616 73.0825 25.5948 73.7808 25.6173C76.546 25.6173 78.3687 27.7969 78.3687 31.1638ZM76.0701 31.1638C76.0701 28.9642 74.9302 27.518 73.1909 27.518C71.4822 27.518 70.3329 28.9946 70.3329 31.1638C70.3329 33.3528 71.4822 34.8188 73.1909 34.8188C74.9302 34.8188 76.0701 33.3833 76.0701 31.1638H76.0701Z" fill="white"/>
<path d="M86.2941 32.4434C86.4598 33.9212 87.8994 34.8914 89.8666 34.8914C91.7516 34.8914 93.1077 33.9211 93.1077 32.5887C93.1077 31.432 92.2898 30.7395 90.3532 30.2649L88.4165 29.7996C85.6725 29.1387 84.3986 27.859 84.3986 25.7824C84.3986 23.2113 86.6455 21.4453 89.8361 21.4453C92.9937 21.4453 95.1584 23.2113 95.2313 25.7824H92.9737C92.8386 24.2953 91.6059 23.3977 89.8043 23.3977C88.0028 23.3977 86.7701 24.3059 86.7701 25.6277C86.7701 26.6813 87.5574 27.3012 89.4835 27.7757L91.1299 28.1789C94.1959 28.9019 95.4698 30.1301 95.4698 32.3097C95.4698 35.0976 93.2429 36.8437 89.7009 36.8437C86.3869 36.8437 84.1494 35.1386 84.0049 32.4433L86.2941 32.4434Z" fill="white"/>
<path d="M100.296 23.1599V25.7309H102.368V27.497H100.296V33.4864C100.296 34.4169 100.711 34.8505 101.622 34.8505C101.868 34.8462 102.113 34.829 102.357 34.7989V36.5543C101.948 36.6306 101.532 36.6652 101.115 36.6575C98.9096 36.6575 98.0493 35.8313 98.0493 33.7243V27.497H96.4652V25.7309H98.0493V23.1599H100.296Z" fill="white"/>
<path d="M103.568 31.1637C103.568 27.7454 105.587 25.5973 108.735 25.5973C111.894 25.5973 113.903 27.7453 113.903 31.1637C113.903 34.5915 111.904 36.7301 108.735 36.7301C105.567 36.7301 103.568 34.5915 103.568 31.1637ZM111.625 31.1637C111.625 28.8188 110.547 27.4348 108.735 27.4348C106.923 27.4348 105.847 28.8294 105.847 31.1637C105.847 33.518 106.923 34.8915 108.735 34.8915C110.547 34.8915 111.625 33.518 111.625 31.1637H111.625Z" fill="white"/>
<path d="M115.747 25.7309H117.88V27.5801H117.932C118.076 27.0026 118.415 26.4922 118.893 26.1347C119.37 25.7772 119.956 25.5945 120.552 25.6172C120.81 25.6163 121.067 25.6442 121.319 25.7004V27.7864C120.993 27.6872 120.654 27.6417 120.314 27.6516C119.989 27.6385 119.665 27.6956 119.364 27.819C119.064 27.9425 118.793 28.1294 118.572 28.3669C118.351 28.6043 118.183 28.8868 118.082 29.1948C117.98 29.5028 117.947 29.829 117.983 30.1512V36.5953H115.747L115.747 25.7309Z" fill="white"/>
<path d="M131.63 33.4044C131.329 35.3766 129.403 36.7301 126.938 36.7301C123.769 36.7301 121.802 34.6125 121.802 31.2153C121.802 27.8075 123.78 25.5973 126.844 25.5973C129.859 25.5973 131.754 27.6622 131.754 30.9563V31.7204H124.059V31.8551C124.024 32.255 124.074 32.6578 124.207 33.0368C124.339 33.4158 124.551 33.7623 124.828 34.0534C125.105 34.3444 125.442 34.5734 125.814 34.7249C126.187 34.8765 126.588 34.9472 126.99 34.9325C127.519 34.9818 128.049 34.8598 128.502 34.5845C128.956 34.3091 129.308 33.8952 129.506 33.4043L131.63 33.4044ZM124.07 30.1618H129.517C129.537 29.8023 129.482 29.4425 129.356 29.105C129.23 28.7676 129.036 28.4597 128.785 28.2008C128.534 27.9419 128.232 27.7375 127.898 27.6004C127.564 27.4634 127.205 27.3966 126.844 27.4044C126.48 27.4022 126.119 27.472 125.782 27.6096C125.445 27.7473 125.139 27.9502 124.881 28.2066C124.623 28.4629 124.419 28.7677 124.279 29.1033C124.14 29.4389 124.069 29.7986 124.07 30.1618V30.1618Z" fill="white"/>
<path d="M45.519 10.4772C45.9879 10.4436 46.4583 10.5143 46.8965 10.684C47.3346 10.8537 47.7296 11.1183 48.0528 11.4586C48.376 11.799 48.6194 12.2066 48.7655 12.6521C48.9116 13.0977 48.9567 13.57 48.8976 14.035C48.8976 16.3225 47.6578 17.6374 45.519 17.6374H42.9254V10.4772H45.519ZM44.0406 16.6248H45.3944C45.7295 16.6448 46.0647 16.59 46.3758 16.4644C46.687 16.3389 46.9661 16.1458 47.1929 15.8991C47.4198 15.6524 47.5886 15.3584 47.6871 15.0385C47.7856 14.7185 47.8113 14.3807 47.7624 14.0496C47.8078 13.7198 47.7794 13.3841 47.6794 13.0665C47.5794 12.7489 47.4102 12.4573 47.1838 12.2125C46.9575 11.9678 46.6797 11.7761 46.3704 11.651C46.061 11.5259 45.7277 11.4706 45.3944 11.489H44.0406V16.6248Z" fill="white"/>
<path d="M50.1574 14.9332C50.1233 14.5781 50.164 14.2198 50.2769 13.8814C50.3899 13.5429 50.5725 13.2317 50.8131 12.9677C51.0537 12.7037 51.347 12.4928 51.6741 12.3485C52.0013 12.2041 52.355 12.1296 52.7128 12.1296C53.0705 12.1296 53.4243 12.2041 53.7514 12.3485C54.0785 12.4928 54.3718 12.7037 54.6124 12.9677C54.853 13.2317 55.0356 13.5429 55.1486 13.8814C55.2615 14.2198 55.3022 14.5781 55.2681 14.9332C55.3029 15.2887 55.2626 15.6475 55.15 15.9865C55.0374 16.3255 54.8548 16.6373 54.6142 16.9018C54.3735 17.1663 54.08 17.3777 53.7526 17.5223C53.4251 17.667 53.0709 17.7417 52.7128 17.7417C52.3546 17.7417 52.0004 17.667 51.6729 17.5223C51.3455 17.3777 51.052 17.1663 50.8113 16.9018C50.5707 16.6373 50.3881 16.3255 50.2755 15.9865C50.1629 15.6475 50.1226 15.2887 50.1574 14.9332V14.9332ZM54.1682 14.9332C54.1682 13.7619 53.6405 13.077 52.7145 13.077C51.785 13.077 51.262 13.7619 51.262 14.9332C51.262 16.1139 51.785 16.7936 52.7145 16.7936C53.6406 16.7936 54.1682 16.1092 54.1682 14.9332H54.1682Z" fill="white"/>
<path d="M62.0617 17.6373H60.9523L59.8324 13.6576H59.7478L58.6326 17.6373H57.5338L56.0402 12.2338H57.1248L58.0955 16.357H58.1754L59.2895 12.2338H60.3154L61.4295 16.357H61.5141L62.4801 12.2338H63.5495L62.0617 17.6373Z" fill="white"/>
<path d="M64.8058 12.2338H65.8352V13.0922H65.9151C66.0507 12.7839 66.2794 12.5254 66.5692 12.3529C66.8591 12.1803 67.1957 12.1022 67.5322 12.1295C67.7958 12.1097 68.0606 12.1494 68.3068 12.2455C68.553 12.3416 68.7743 12.4917 68.9545 12.6847C69.1346 12.8778 69.2689 13.1087 69.3473 13.3605C69.4258 13.6123 69.4464 13.8784 69.4077 14.1393V17.6373H68.3383V14.407C68.3383 13.5387 67.9599 13.1068 67.169 13.1068C66.99 13.0985 66.8113 13.1289 66.6452 13.1959C66.4791 13.2629 66.3294 13.3649 66.2065 13.495C66.0836 13.6251 65.9904 13.7801 65.9332 13.9494C65.876 14.1188 65.8562 14.2985 65.8752 14.4762V17.6373H64.8058L64.8058 12.2338Z" fill="white"/>
<path d="M71.1117 10.1244H72.1811V17.6373H71.1117V10.1244Z" fill="white"/>
<path d="M73.6678 14.9332C73.6338 14.5781 73.6745 14.2198 73.7875 13.8813C73.9004 13.5428 74.0831 13.2316 74.3237 12.9676C74.5644 12.7036 74.8577 12.4927 75.1848 12.3483C75.512 12.204 75.8658 12.1295 76.2235 12.1295C76.5813 12.1295 76.9351 12.204 77.2622 12.3483C77.5894 12.4927 77.8827 12.7036 78.1233 12.9676C78.3639 13.2316 78.5466 13.5428 78.6595 13.8813C78.7725 14.2198 78.8132 14.5781 78.7792 14.9332C78.8139 15.2887 78.7736 15.6475 78.6609 15.9865C78.5483 16.3255 78.3657 16.6373 78.125 16.9018C77.8843 17.1663 77.5908 17.3776 77.2633 17.5223C76.9359 17.6669 76.5817 17.7416 76.2235 17.7416C75.8654 17.7416 75.5111 17.6669 75.1837 17.5223C74.8562 17.3776 74.5627 17.1663 74.322 16.9018C74.0813 16.6373 73.8988 16.3255 73.7861 15.9865C73.6734 15.6475 73.6332 15.2887 73.6678 14.9332V14.9332ZM77.6786 14.9332C77.6786 13.7619 77.151 13.077 76.225 13.077C75.2954 13.077 74.7725 13.7619 74.7725 14.9332C74.7725 16.1139 75.2955 16.7936 76.225 16.7936C77.151 16.7936 77.6787 16.1092 77.6787 14.9332H77.6786Z" fill="white"/>
<path d="M79.9049 16.1092C79.9049 15.1365 80.6312 14.5758 81.9203 14.4961L83.3881 14.4117V13.9453C83.3881 13.3746 83.0097 13.0524 82.2787 13.0524C81.6818 13.0524 81.2681 13.2709 81.1494 13.653H80.1141C80.2234 12.7248 81.0989 12.1295 82.3281 12.1295C83.6866 12.1295 84.4528 12.8039 84.4528 13.9453V17.6373H83.4234V16.878H83.3387C83.167 17.1503 82.9258 17.3724 82.6399 17.5215C82.3539 17.6705 82.0335 17.7412 81.7111 17.7264C81.4837 17.7499 81.2537 17.7257 81.0362 17.6553C80.8187 17.5849 80.6184 17.4698 80.4482 17.3174C80.278 17.165 80.1418 16.9788 80.0482 16.7707C79.9546 16.5626 79.9058 16.3373 79.9049 16.1092V16.1092ZM83.3881 15.6475V15.1957L82.0649 15.2801C81.3186 15.3299 80.9802 15.583 80.9802 16.0594C80.9802 16.5457 81.4032 16.8287 81.985 16.8287C82.1554 16.8459 82.3276 16.8288 82.4913 16.7783C82.6549 16.7277 82.8068 16.6449 82.9377 16.5347C83.0686 16.4245 83.1759 16.2892 83.2533 16.1367C83.3307 15.9843 83.3765 15.8179 83.3881 15.6475V15.6475Z" fill="white"/>
<path d="M85.8583 14.9332C85.8583 13.2258 86.7385 12.1441 88.1075 12.1441C88.4462 12.1286 88.7823 12.2095 89.0765 12.3773C89.3708 12.5452 89.611 12.7931 89.7692 13.0921H89.8491V10.1244H90.9185V17.6373H89.8938V16.7836H89.8092C89.6388 17.0806 89.3901 17.3254 89.0902 17.4916C88.7903 17.6577 88.4504 17.7389 88.1075 17.7263C86.7291 17.7264 85.8583 16.6447 85.8583 14.9332ZM86.963 14.9332C86.963 16.0793 87.5047 16.7689 88.4108 16.7689C89.3121 16.7689 89.8691 16.0693 89.8691 14.9379C89.8691 13.8117 89.3063 13.1021 88.4108 13.1021C87.5106 13.1021 86.9629 13.7965 86.9629 14.9332H86.963Z" fill="white"/>
<path d="M95.3431 14.9332C95.3091 14.5781 95.3498 14.2198 95.4627 13.8814C95.5757 13.5429 95.7583 13.2317 95.9989 12.9677C96.2395 12.7037 96.5328 12.4928 96.8599 12.3485C97.187 12.2041 97.5408 12.1296 97.8985 12.1296C98.2563 12.1296 98.61 12.2041 98.9372 12.3485C99.2643 12.4928 99.5576 12.7037 99.7982 12.9677C100.039 13.2317 100.221 13.5429 100.334 13.8814C100.447 14.2198 100.488 14.5781 100.454 14.9332C100.489 15.2887 100.448 15.6475 100.336 15.9865C100.223 16.3255 100.041 16.6373 99.8 16.9018C99.5593 17.1663 99.2658 17.3777 98.9383 17.5223C98.6109 17.667 98.2567 17.7417 97.8985 17.7417C97.5404 17.7417 97.1862 17.667 96.8587 17.5223C96.5313 17.3777 96.2378 17.1663 95.9971 16.9018C95.7564 16.6373 95.5739 16.3255 95.4613 15.9865C95.3487 15.6475 95.3084 15.2887 95.3431 14.9332V14.9332ZM99.354 14.9332C99.354 13.7619 98.8263 13.077 97.9003 13.077C96.9707 13.077 96.4478 13.7619 96.4478 14.9332C96.4478 16.1139 96.9708 16.7936 97.9003 16.7936C98.8263 16.7936 99.354 16.1092 99.354 14.9332Z" fill="white"/>
<path d="M101.889 12.2338H102.918V13.0922H102.998C103.134 12.7839 103.362 12.5254 103.652 12.3529C103.942 12.1803 104.279 12.1022 104.615 12.1295C104.879 12.1097 105.143 12.1494 105.39 12.2455C105.636 12.3416 105.857 12.4917 106.037 12.6847C106.217 12.8778 106.352 13.1087 106.43 13.3605C106.509 13.6123 106.529 13.8784 106.491 14.1393V17.6373H105.421V14.407C105.421 13.5387 105.043 13.1068 104.252 13.1068C104.073 13.0985 103.894 13.1289 103.728 13.1959C103.562 13.2629 103.412 13.3649 103.289 13.495C103.167 13.6251 103.073 13.7801 103.016 13.9494C102.959 14.1188 102.939 14.2985 102.958 14.4762V17.6373H101.889V12.2338Z" fill="white"/>
<path d="M112.533 10.8885V12.2584H113.707V13.1567H112.533V15.9352C112.533 16.5012 112.767 16.749 113.3 16.749C113.436 16.7486 113.572 16.7404 113.707 16.7244V17.6127C113.515 17.647 113.321 17.6652 113.126 17.6672C111.936 17.6672 111.463 17.25 111.463 16.2082V13.1566H110.603V12.2584H111.463V10.8885H112.533Z" fill="white"/>
<path d="M115.168 10.1244H116.228V13.1021H116.313C116.455 12.7909 116.69 12.531 116.985 12.3578C117.281 12.1846 117.623 12.1065 117.965 12.1342C118.227 12.1199 118.489 12.1636 118.733 12.262C118.976 12.3605 119.195 12.5113 119.373 12.7037C119.551 12.8961 119.685 13.1254 119.764 13.3751C119.843 13.6249 119.866 13.889 119.831 14.1486V17.6373H118.76V14.4117C118.76 13.5486 118.357 13.1115 117.602 13.1115C117.418 13.0965 117.233 13.1217 117.06 13.1853C116.887 13.249 116.73 13.3496 116.6 13.4801C116.47 13.6105 116.37 13.7678 116.308 13.9407C116.245 14.1137 116.221 14.2982 116.237 14.4814V17.6373H115.168L115.168 10.1244Z" fill="white"/>
<path d="M126.067 16.1783C125.921 16.6722 125.606 17.0993 125.177 17.3851C124.748 17.6709 124.232 17.7971 123.719 17.7416C123.362 17.751 123.007 17.6828 122.679 17.5418C122.351 17.4007 122.058 17.1902 121.82 16.9249C121.581 16.6595 121.404 16.3456 121.3 16.005C121.195 15.6645 121.167 15.3053 121.215 14.9525C121.168 14.5987 121.197 14.2388 121.301 13.8971C121.405 13.5555 121.582 13.2402 121.819 12.9725C122.056 12.7048 122.347 12.491 122.674 12.3456C123.001 12.2001 123.356 12.1264 123.714 12.1295C125.222 12.1295 126.131 13.1567 126.131 14.8535V15.2256H122.305V15.2854C122.288 15.4836 122.313 15.6832 122.378 15.8713C122.443 16.0594 122.547 16.2319 122.683 16.3776C122.819 16.5234 122.984 16.6392 123.167 16.7177C123.351 16.7962 123.548 16.8356 123.748 16.8334C124.004 16.864 124.263 16.818 124.492 16.7014C124.722 16.5847 124.912 16.4027 125.037 16.1783L126.067 16.1783ZM122.305 14.4369H125.042C125.055 14.2556 125.031 14.0734 124.969 13.9021C124.908 13.7309 124.811 13.5743 124.686 13.4425C124.56 13.3106 124.408 13.2065 124.24 13.1367C124.071 13.0668 123.89 13.0329 123.708 13.0371C123.523 13.0348 123.339 13.0694 123.168 13.139C122.997 13.2085 122.841 13.3115 122.71 13.442C122.58 13.5724 122.476 13.7277 122.407 13.8985C122.337 14.0694 122.302 14.2525 122.305 14.4369H122.305Z" fill="white"/>
</g>
<defs>
<clipPath id="clip0_603_1912">
<rect width="144" height="48" fill="white"/>
</clipPath>
</defs>
</svg>
