<svg width="8" height="14" viewBox="0 0 8 14" fill="none" xmlns="http://www.w3.org/2000/svg">
<path fill-rule="evenodd" clip-rule="evenodd" d="M0.234315 4.43886C-0.0781054 4.13513 -0.0781054 3.64264 0.234315 3.33892L3.43386 0.228278C3.51056 0.153689 3.59942 0.0969876 3.69378 0.0590323C3.7881 0.0209988 3.89154 -1.70105e-07 4.00001 -1.74846e-07C4.10805 -1.79569e-07 4.21109 0.0208443 4.30511 0.0585669C4.35183 0.0773113 4.39708 0.100489 4.44019 0.128177C4.48455 0.156645 4.52664 0.189855 4.5657 0.227811L7.76571 3.33892C8.0781 3.64264 8.0781 4.13513 7.76571 4.43885C7.45328 4.74258 6.94675 4.74258 6.63433 4.43885L4.80001 2.65549L4.80001 13.2222C4.80001 13.6518 4.44183 14 4.00001 14C3.55818 14 3.20001 13.6518 3.20001 13.2222L3.20001 2.65549L1.36569 4.43886C1.05327 4.74258 0.546735 4.74258 0.234315 4.43886Z" fill="#0A163F"/>
</svg>
