<svg width="35" height="21" viewBox="0 0 35 21" fill="none" xmlns="http://www.w3.org/2000/svg">
<path d="M34.8875 10.0296C31.2443 3.86468 24.6293 0 17.5 0C10.3707 0 3.7486 3.86468 0.112511 10.0296C-0.0375038 10.251 -0.0375038 10.5511 0.112511 10.7725C3.75574 16.9374 10.3707 20.8021 17.5 20.8021C24.6293 20.8021 31.2514 16.9374 34.8875 10.7725C35.0375 10.5511 35.0375 10.251 34.8875 10.0296ZM17.5 19.3163C11.0351 19.3163 5.01301 15.9016 1.66981 10.4011C5.01301 4.9005 11.0351 1.48587 17.5 1.48587C23.9649 1.48587 29.987 4.9005 33.3302 10.4011C29.987 15.9016 23.9649 19.3163 17.5 19.3163Z"/>
<path d="M17.4999 3.71466C13.7852 3.71466 10.8135 6.68639 10.8135 10.4011C10.8135 14.1157 13.7852 17.0875 17.4999 17.0875C21.2145 17.0875 24.1863 14.1157 24.1863 10.4011C24.1863 6.68639 21.2145 3.71466 17.4999 3.71466ZM17.4999 15.6016C14.5996 15.6016 12.2993 13.2942 12.2993 10.4011C12.2993 7.50791 14.6067 5.20053 17.4999 5.20053C20.393 5.20053 22.7004 7.50791 22.7004 10.4011C22.7004 13.2942 20.4002 15.6016 17.4999 15.6016Z" />
<path d="M17.5001 7.42932V8.91519C18.3144 8.91519 18.9859 9.58668 18.9859 10.4011C18.9859 11.2154 18.3144 11.8869 17.5001 11.8869C16.6857 11.8869 16.0142 11.2154 16.0142 10.4011H14.5283C14.5283 12.0369 15.8642 13.3728 17.5001 13.3728C19.1359 13.3728 20.4718 12.0369 20.4718 10.4011C20.4718 8.76517 19.1359 7.42932 17.5001 7.42932Z"/>
</svg>
