<svg width="22" height="28" viewBox="0 0 22 28" fill="none" xmlns="http://www.w3.org/2000/svg">
<path d="M11.2236 14.9231C13.2628 14.9231 14.9159 13.27 14.9159 11.2308C14.9159 9.19155 13.2628 7.53845 11.2236 7.53845C9.18435 7.53845 7.53125 9.19155 7.53125 11.2308C7.53125 13.27 9.18435 14.9231 11.2236 14.9231Z" stroke="#0A163F" stroke-width="2.11765" stroke-linecap="round" stroke-linejoin="round" />
<path d="M20.4557 11.2308C20.4557 19.5385 11.2249 26 11.2249 26C11.2249 26 1.99414 19.5385 1.99414 11.2308C1.99414 8.78262 2.96667 6.43473 4.69777 4.70363C6.42888 2.97252 8.77676 2 11.2249 2C13.6731 2 16.0209 2.97252 17.7521 4.70363C19.4832 6.43473 20.4557 8.78262 20.4557 11.2308V11.2308Z" stroke="#0A163F" stroke-width="2.11765" stroke-linecap="round" stroke-linejoin="round"  />
</svg>
