<svg width="52" height="52" viewBox="0 0 52 52" fill="none" xmlns="http://www.w3.org/2000/svg">
<rect x="1" y="1" width="50.4762" height="50.4762" rx="25.2381" stroke="#0A163F" stroke-width="0.701058"/>
<path fill-rule="evenodd" clip-rule="evenodd" d="M14.7918 24.2986C21.7883 21.2504 26.4537 19.2408 28.788 18.2699C35.4531 15.4976 36.838 15.0161 37.7407 15.0002C37.9392 14.9967 38.3832 15.0459 38.6707 15.2792C38.9135 15.4762 38.9803 15.7424 39.0123 15.9292C39.0443 16.1159 39.0841 16.5415 39.0524 16.8739C38.6912 20.6689 37.1284 29.8783 36.3333 34.1287C35.9969 35.9272 35.3345 36.5303 34.6932 36.5893C33.2994 36.7175 32.2411 35.6682 30.8912 34.7833C28.7789 33.3987 27.5856 32.5367 25.5352 31.1856C23.1657 29.6241 24.7017 28.7659 26.0521 27.3633C26.4055 26.9962 32.5463 21.4107 32.6652 20.904C32.68 20.8406 32.6938 20.6044 32.5535 20.4797C32.4132 20.355 32.2061 20.3976 32.0566 20.4315C31.8447 20.4796 28.4703 22.71 21.9333 27.1227C20.9754 27.7804 20.1079 28.1009 19.3306 28.0841C18.4736 28.0656 16.8253 27.5995 15.5999 27.2012C14.0969 26.7127 12.9023 26.4543 13.0063 25.6246C13.0605 25.1924 13.6556 24.7504 14.7918 24.2986Z" fill="#0A163F"/>
</svg>
