<svg width="52" height="52" viewBox="0 0 52 52" fill="none" xmlns="http://www.w3.org/2000/svg">
<rect x="0.507812" y="1" width="50.4762" height="50.4762" rx="25.2381" stroke="#0A163F" stroke-width="0.701058"/>
<path d="M35.0788 21.4847C35.2258 20.9917 35.0788 20.6301 34.384 20.6301H32.0823C31.4966 20.6301 31.229 20.9429 31.0821 21.2864C31.0821 21.2864 29.9118 24.1692 28.2535 26.0384C27.7182 26.5823 27.4736 26.7541 27.1819 26.7541C27.036 26.7541 26.824 26.5823 26.824 26.0893V21.4847C26.824 20.8931 26.655 20.6301 26.1669 20.6301H22.5501C22.1849 20.6301 21.9644 20.9037 21.9644 21.1645C21.9644 21.7243 22.7936 21.8537 22.8786 23.4313V26.8538C22.8786 27.6034 22.7453 27.7401 22.4514 27.7401C21.6716 27.7401 19.774 24.8467 18.6478 21.5345C18.4284 20.8909 18.207 20.6312 17.6192 20.6312H15.3186C14.6605 20.6312 14.5293 20.944 14.5293 21.2875C14.5293 21.9045 15.3091 24.9581 18.1619 28.9965C20.0637 31.7542 22.7411 33.2492 25.1803 33.2492C26.6424 33.2492 26.8229 32.9173 26.8229 32.3448V30.2603C26.8229 29.5966 26.9625 29.463 27.4254 29.463C27.7654 29.463 28.3511 29.6369 29.7166 30.9654C31.2762 32.5409 31.5344 33.2481 32.4108 33.2481H34.7115C35.3685 33.2481 35.697 32.9163 35.5081 32.261C35.3013 31.609 34.5561 30.6601 33.5674 29.5373C33.0301 28.8969 32.2271 28.2077 31.9826 27.8631C31.6415 27.4189 31.7401 27.2227 31.9826 26.8283C31.9836 26.8294 34.787 22.8407 35.0788 21.4847Z" fill="#0A163F"/>
</svg>
